<svg enable-background="new 0 0 512 512" version="1.1" viewBox="0 0 512 512" xmlns="http://www.w3.org/2000/svg">
 <path d="m399.14 363.75h-19.313c-4.707 0-8.52-3.815-8.52-8.52s3.814-8.52 8.52-8.52h19.313c4.707 0 8.52 3.815 8.52 8.52s-3.814 8.52-8.52 8.52z" fill="#FFD0B8"/>
 <rect x="395.74" y="250.71" width="11.36" height="261.29" fill="#BC6D1E"/>
 <path d="m410.5 371.7c-4.707 0-8.52-3.815-8.52-8.52v-13.632c0-4.705 3.814-8.52 8.52-8.52s8.52 3.815 8.52 8.52v13.632c0 4.705-3.814 8.52-8.52 8.52z" fill="#FFD0B8"/>
 <path d="m408.8 275.7h-14.775c-3.138 0-5.68-2.544-5.68-5.68s2.542-5.68 5.68-5.68h14.775c3.138 0 5.68 2.544 5.68 5.68s-2.542 5.68-5.68 5.68z" fill="#BC6D1E"/>
 <path d="m132.12 363.75h-19.313c-4.707 0-8.52-3.815-8.52-8.52s3.814-8.52 8.52-8.52h19.313c4.707 0 8.52 3.815 8.52 8.52 1e-3 4.705-3.813 8.52-8.52 8.52z" fill="#FFD0B8"/>
 <path d="m104.58 377.87-23.529-121.48 39.995 117.09c1.525 4.463-0.858 9.318-5.321 10.842s-9.318-0.858-10.842-5.321c-0.124-0.36-0.23-0.772-0.303-1.136z" fill="#F7B348"/>
 <g>
  <path d="m322.06 110.52-0.091 0.909c-20.437-2.204-42.692-3.408-65.97-3.408-8.373 0-16.62 0.148-24.686 0.454-14.371 0.545-28.196 1.545-41.284 2.954l-0.091-0.909 66.062-110.52 66.06 110.52z" fill="#ce1717"/>
  <path d="M256,0l-23.289,108.026l-1.397,0.454c-14.371,0.545-28.196,1.545-41.284,2.954l-0.091-0.909L256,0z" fill="#a21d1d"/>
  <path d="m235.13 366.14c1.216-0.511 76.001-32.457 81.59-92.655l6.214 36.694 10.19 60.221s0 0.011 0.011 0.011l23.971 141.58h-202.21l23.97-141.58 10.202-60.221 7.895-46.623c1.295 12.996 6.282 35.558 25.004 46.43 27.186 15.79 25.005 44.282 13.167 56.142z" fill="#d82727"/>
  <polyline points="233.94 285.94 215.48 512 154.89 512 195.05 274.83 205.17 229.04" fill="#a21d1d"/>
  <g fill="#ce1717">
   <path d="m437.38 155.73c0 18.279-35.626 34.274-88.781 42.976 1.227-3.726 1.943-7.259 1.943-10.122 0-11.917-7.634-21.585-17.041-21.585-1.386 0-2.715 0.227-3.999 0.625-1.204-10.02-3.556-19.528-6.896-28.287-20.324-2.147-42.874-3.34-66.606-3.34s-46.282 1.193-66.606 3.34c-3.34 8.759-5.692 18.267-6.896 28.287-1.284-0.398-2.613-0.625-3.999-0.625-9.406 0-17.041 9.668-17.041 21.585 0 2.863 0.716 6.396 1.943 10.122-53.155-8.702-88.781-24.697-88.781-42.976 0-21.187 47.85-39.295 115.41-46.566 20.437-2.204 42.692-3.408 65.97-3.408 12.349 0 24.402 0.341 36.046 0.988h0.011c10.315 0.568 20.324 1.386 29.912 2.42 67.562 7.27 115.41 25.379 115.41 46.566z"/>
   <path d="m379.83 341.6v48.85s-32.036 4.215-46.691-20.028c-0.011 0-0.011-0.011-0.011-0.011l-10.19-60.221s4.112 6.566 11.281 13.769c0 0 0 0.011 0.011 0.023 10.121 10.165 26.321 21.605 45.6 17.618z"/>
  </g>
 </g>
 <path d="m350.54 188.58c0 2.863-0.716 6.396-1.943 10.122-3.84 11.803-12.667 25.504-19.426 25.504l-1.147 0.727c-12.587-11.622-19.165-28.583-32.263-32.945-20.449-6.816-39.762 17.041-39.762 17.041s-19.313-23.857-39.761-17.041c-4.499 1.5-8.225 4.476-11.701 8.225-6.623 7.157-12.292 17.086-20.562 24.72l-1.147-0.727c-6.759 0-15.586-13.701-19.426-25.504-1.227-3.726-1.943-7.259-1.943-10.122 0-11.917 7.634-21.585 17.041-21.585 1.386 0 2.715 0.227 3.999 0.625 1.204-10.02 3.556-19.528 6.896-28.287 20.324-2.147 42.874-3.34 66.606-3.34s46.282 1.193 66.606 3.34c1.784 4.669 3.283 9.543 4.465 14.598 1.056 4.431 1.863 9.009 2.431 13.689 1.284-0.398 2.613-0.625 3.999-0.625 9.404 0 17.038 9.668 17.038 21.585z" fill="#FFD0B8"/>
 <path d="m256 217.55c-4.707 0-8.52-3.815-8.52-8.52v-21.585c0-4.705 3.814-8.52 8.52-8.52s8.52 3.815 8.52 8.52v21.585c0 4.705-3.813 8.52-8.52 8.52z" fill="#E2B39F"/>
 <path d="m316.72 273.49c-5.589 60.199-80.375 92.144-81.59 92.655 11.837-11.86 14.019-40.352-13.167-56.143-18.324-10.633-23.493-32.468-24.913-45.578-0.034-0.284-0.068-0.568-0.091-0.852-0.102-1.068-0.182-2.068-0.25-2.988-0.273-4.022-0.17-6.6-0.159-6.805 2.749 0.295 5.623 0.454 8.611 0.454 23.755 0 40.568-25.663 47.418-38.307 2.249-4.147 3.419-6.896 3.419-6.896s1.17 2.749 3.419 6.896c6.85 12.644 23.664 38.307 47.418 38.307 3.204 0 6.271-0.182 9.202-0.523 0.557 3.579 0.886 7.066 0.977 10.474 0.092 3.183-0.01 6.284-0.294 9.306z" fill="#E6E6E6"/>
 <path d="m256 136c-23.732 0-46.282 1.193-66.606 3.34-3.34 8.759-5.692 18.267-6.896 28.287-1.284-0.398-2.613-0.625-3.999-0.625-9.406 0-17.041 9.668-17.041 21.585 0 2.863 0.716 6.396 1.943 10.122-53.155-8.702-88.781-24.697-88.781-42.976 0-21.187 47.85-39.295 115.41-46.566 20.437-2.204 42.692-3.408 65.97-3.408 12.349 0 24.402 0.341 36.046 0.988-0.863 0.045-46.168 2.272-36.046 29.253z" fill="#a21d1d"/>
 <g fill="#ccc">
  <path d="m317.02 264.19c-0.329 0.045-0.648 0.091-0.977 0.125-2.931 0.341-5.998 0.523-9.202 0.523-31.525 0-50.838-45.203-50.838-45.203s-2.185-8.434-3e-3 -10.604c6.85 12.644 27.087 45.207 50.841 45.207 3.204 0 6.271-0.182 9.202-0.523 0.557 3.579 0.886 7.067 0.977 10.475z"/>
  <path d="m256 219.63s-19.313 45.203-50.838 45.203c-2.806 0-5.521-0.136-8.111-0.409-0.034-0.284-0.068-0.568-0.091-0.852-0.568-5.692-0.42-9.543-0.409-9.793 2.749 0.295 5.623 0.454 8.611 0.454 23.755 0 33.987-35.422 50.834-45.207 2.182 2.17 4e-3 10.604 4e-3 10.604z"/>
 </g>
 <path d="m189.06 310.2 22.065 41.057-32.267 19.164-0.045-0.011c-14.643 24.254-46.691 20.04-46.691 20.04v-48.85c32.945 6.816 56.938-31.4 56.938-31.4z" fill="#a21d1d"/>
 <path d="m327.07 153.93c-36.228-4.68-134.89-12.235-122.53 46.282-6.623 7.157-12.292 17.086-20.562 24.72l-1.147-0.727c-6.759 0-15.586-13.701-19.426-25.504-1.227-3.726-1.943-7.259-1.943-10.122 0-11.917 7.634-21.585 17.041-21.585 1.386 0 2.715 0.227 3.999 0.625 1.204-10.02 3.556-19.528 6.896-28.287 20.324-2.147 42.874-3.34 66.606-3.34s46.282 1.193 66.606 3.34c1.782 4.669 3.282 9.543 4.463 14.598z" fill="#E2B39F"/>
 <path d="m379.83 390.44s-32.036 4.215-46.691-20.028c-0.011 0-0.011-0.011-0.011-0.011l-10.19-60.221s4.112 6.566 11.281 13.769c0 0 0 0.011 0.011 0.023 0.567 1.407 24.277 59.731 45.6 66.468z" fill="#a21d1d"/>
 <g fill="#4D4D4D">
  <path d="m239.42 169.47c-3.568-0.189-6.049-0.327-8.337-0.315l-6.119 5e-3 -6.113 0.011c-2.286-0.011-4.765 0.122-8.343 0.3 0.214-3.6 2.261-6.508 4.922-8.563 2.694-2.04 6.12-3.113 9.534-3.106 3.413 6e-3 6.837 1.077 9.527 3.121 2.659 2.055 4.706 4.957 4.929 8.547z"/>
  <path d="m301.5 169.47c-3.568-0.189-6.048-0.327-8.337-0.315l-6.119 5e-3 -6.113 0.011c-2.286-0.011-4.765 0.122-8.343 0.3 0.214-3.6 2.261-6.508 4.922-8.563 2.694-2.04 6.12-3.113 9.534-3.106 3.413 6e-3 6.837 1.077 9.527 3.121 2.659 2.055 4.705 4.957 4.929 8.547z"/>
 </g>
 <g fill="#E6E6E6">
  <path d="m316.04 253.71c-2.931 0.341-5.998 0.523-9.202 0.523-31.525 0-50.838-45.203-50.838-45.203s19.313-23.857 39.761-17.041c13.098 4.362 19.676 21.323 32.263 32.945 7.066 6.521 16.018 11.36 29.083 11.36 1e-3 0-15.131 14.474-41.067 17.416z"/>
  <path d="m256 209.03s-19.313 45.203-50.838 45.203c-2.988 0-5.862-0.159-8.611-0.454-26.299-2.783-41.658-17.484-41.658-17.484 13.064 0 22.016-4.84 29.083-11.36 12.587-11.622 19.165-28.583 32.263-32.945 20.448-6.817 39.761 17.04 39.761 17.04z"/>
 </g>
 <path d="m99.224 373.97c-3.683 0-7.079-2.406-8.17-6.119l-5.68-19.313c-1.328-4.515 1.255-9.251 5.77-10.579 4.516-1.329 9.251 1.256 10.579 5.77l5.68 19.313c1.328 4.515-1.255 9.251-5.77 10.579-0.804 0.236-1.614 0.349-2.409 0.349z" fill="#FFD0B8"/>
 <circle cx="401.42" cy="236.51" r="19.313" fill="#D84161"/>
 <path d="m393.46 236.51c0-8.69 5.738-16.035 13.632-18.461-1.796-0.552-3.703-0.852-5.68-0.852-10.667 0-19.313 8.645-19.313 19.313s8.645 19.313 19.313 19.313c1.977 0 3.884-0.3 5.68-0.852-7.894-2.426-13.632-9.771-13.632-18.461z" fill="#C1385C"/>
 <path d="m235.13 366.15c11.837-11.86 14.019-40.352-13.167-56.143-18.324-10.633-23.493-32.468-24.913-45.578-0.034-0.284-0.068-0.568-0.091-0.852-0.102-1.068-0.182-2.068-0.25-2.988l2.488-2.011 22.766 1.874s-2.318 19.71 13.587 35.615 23.687 45.976-0.42 70.083z" fill="#ccc"/>
</svg>
